<svg aria-hidden="true" style="position: absolute; width: 0; height: 0; overflow: hidden;" version="1.1" xmlns="http://www.w3.org/2000/svg" xmlns:xlink="http://www.w3.org/1999/xlink">
<defs>
<symbol id="icon-menu" viewBox="0 0 47 32">
<path stroke-linejoin="miter" stroke-linecap="round" stroke-miterlimit="4" stroke-width="2.9091" d="M8.537 5.334h36.554M8.537 24.727h36.554M19.667 15.030h25.424"></path>
</symbol>
<symbol id="icon-arrow-down" viewBox="0 0 32 32">
<path d="M16 24.576l-14.286-14.286 2-2 12.286 12.286 12.286-12.286 2 2-14.286 14.286z"></path>
<path d="M16 24.576l-2.423 2.423 2.423 2.427 2.423-2.423-2.423-2.427zM1.714 10.29l-2.423-2.423-2.425 2.423 2.423 2.423 2.425-2.421zM3.714 8.29l2.423-2.423-2.423-2.425-2.423 2.423 2.421 2.425zM16 20.576l-2.423 2.423 2.423 2.427 2.423-2.423-2.423-2.427zM28.286 8.29l2.423-2.423-2.423-2.425-2.423 2.423 2.423 2.425zM30.286 10.29l2.423 2.423 2.425-2.423-2.423-2.423-2.425 2.423zM18.423 22.153l-14.286-14.288-4.846 4.846 14.286 14.286 4.846-4.846zM4.137 12.713l2.002-1.998-4.85-4.85-1.998 2 4.85 4.85zM1.291 10.718l12.286 12.283 4.848-4.853-12.286-12.283-4.85 4.85zM18.427 23.003l12.286-12.286-4.85-4.85-12.286 12.283 4.85 4.85zM25.863 10.718l2 2 4.848-4.855-2-2-4.85 4.85zM27.863 7.863l-14.286 14.286 4.85 4.85 14.286-14.286-4.853-4.85z"></path>
</symbol>
<symbol id="icon-arrow-right" viewBox="0 0 32 32">
<path stroke-linejoin="round" stroke-linecap="round" stroke-miterlimit="4" stroke-width="3.2" d="M1.866 16h25.6M19.2 6.666l9.334 9.334-9.334 9.334"></path>
</symbol>
<symbol id="icon-close" viewBox="0 0 32 32">
<path stroke-linejoin="round" stroke-linecap="round" stroke-miterlimit="4" stroke-width="2.5" d="M24 8l-16 16M8 8l16 16"></path>
</symbol>
<symbol id="icon-delete" viewBox="0 0 32 32">
<path stroke-linejoin="round" stroke-linecap="round" stroke-miterlimit="4" stroke-width="2.6" d="M4 8h24M25.334 8v18.666c0 0.001 0 0.001 0 0.002 0 1.472-1.194 2.666-2.666 2.666-0.001 0-0.001 0-0.002 0h-13.332c-0.001 0-0.001 0-0.002 0-1.472 0-2.666-1.194-2.666-2.666 0-0.001 0-0.001 0-0.002v0-18.666M10.666 8v-2.666c0-0.001 0-0.001 0-0.002 0-1.472 1.194-2.666 2.666-2.666 0.001 0 0.001 0 0.002 0h5.332c0.001 0 0.001 0 0.002 0 1.472 0 2.666 1.194 2.666 2.666 0 0.001 0 0.001 0 0.002v-0 2.666M13.334 14.666v8M18.666 14.666v8"></path>
</symbol>
<symbol id="icon-dots" viewBox="0 0 32 32">
<path d="M5.34 19.528c-1.936 0-3.476-1.452-3.476-3.256v-0.22c0-1.76 1.54-3.212 3.476-3.212 1.892 0 3.52 1.452 3.52 3.212v0.22c0 1.804-1.628 3.256-3.52 3.256zM15.996 19.528c-1.936 0-3.476-1.452-3.476-3.256v-0.22c0-1.76 1.54-3.212 3.476-3.212 1.892 0 3.52 1.452 3.52 3.212v0.22c0 1.804-1.628 3.256-3.52 3.256zM26.652 19.528c-1.936 0-3.476-1.452-3.476-3.256v-0.22c0-1.76 1.54-3.212 3.476-3.212 1.892 0 3.52 1.452 3.52 3.212v0.22c0 1.804-1.628 3.256-3.52 3.256z"></path>
</symbol>
<symbol id="icon-edit" viewBox="0 0 32 32">
<path stroke-linejoin="round" stroke-linecap="round" stroke-miterlimit="4" stroke-width="2.6" d="M22.666 4c0.683-0.683 1.625-1.105 2.667-1.105 2.083 0 3.772 1.689 3.772 3.772 0 1.042-0.422 1.984-1.105 2.667v0l-18 18-7.334 2 2-7.334 18-18z"></path>
</symbol>
<symbol id="icon-english" viewBox="0 0 32 32">
<path fill="#f0f0f0" style="fill: var(--color1, #f0f0f0)" d="M16 32c8.837 0 16-7.163 16-16s-7.163-16-16-16-16 7.163-16 16 7.163 16 16 16z"></path>
<path fill="#0052b4" style="fill: var(--color2, #0052b4)" d="M3.308 6.259c-1.223 1.576-2.171 3.435-2.731 5.455l-0.027 0.112h8.324l-5.566-5.566zM31.449 11.826c-0.586-2.132-1.533-3.991-2.783-5.603l0.027 0.036-5.568 5.567h8.324zM0.551 20.174c0.586 2.132 1.534 3.991 2.784 5.603l-0.027-0.036 5.567-5.567h-8.325zM25.741 3.308c-1.576-1.223-3.435-2.171-5.455-2.731l-0.112-0.027v8.324l5.567-5.567zM6.259 28.692c1.576 1.223 3.435 2.171 5.455 2.73l0.112 0.026v-8.324l-5.566 5.567zM11.826 0.551c-2.132 0.587-3.99 1.534-5.602 2.784l0.036-0.027 5.567 5.567v-8.325zM20.174 31.449c2.132-0.587 3.991-1.534 5.603-2.784l-0.036 0.027-5.567-5.567v8.324zM23.125 20.174l5.568 5.567c1.223-1.576 2.17-3.435 2.73-5.455l0.026-0.112h-8.324z"></path>
<path fill="#d80027" style="fill: var(--color3, #d80027)" d="M31.865 13.913h-13.778v-13.778c-0.627-0.086-1.351-0.135-2.087-0.135s-1.46 0.049-2.17 0.144l0.083-0.009v13.778h-13.778c-0.086 0.627-0.135 1.351-0.135 2.087s0.049 1.46 0.144 2.17l-0.009-0.083h13.778v13.778c0.627 0.086 1.351 0.135 2.087 0.135s1.46-0.049 2.17-0.144l-0.083 0.009v-13.778h13.778c0.086-0.627 0.135-1.351 0.135-2.087s-0.049-1.46-0.144-2.17l0.009 0.083z"></path>
<path fill="#d80027" style="fill: var(--color3, #d80027)" d="M20.174 20.174l7.14 7.14c0.328-0.329 0.641-0.672 0.94-1.027l-6.113-6.113h-1.967zM11.826 20.174l-7.14 7.14c0.329 0.328 0.672 0.641 1.027 0.94l6.113-6.113v-1.967zM11.826 11.826l-7.14-7.14c-0.328 0.329-0.641 0.672-0.94 1.027l6.113 6.113h1.967zM20.174 11.826l7.14-7.14c-0.321-0.32-0.656-0.628-1.003-0.92l-0.024-0.020-6.113 6.113v1.967z"></path>
</symbol>
<symbol id="icon-eye" viewBox="0 0 32 32">
<path stroke-linejoin="round" stroke-linecap="round" stroke-miterlimit="4" stroke-width="3.2" d="M1.333 16s5.334-10.667 14.667-10.667 14.667 10.667 14.667 10.667-5.334 10.667-14.667 10.667-14.667-10.667-14.667-10.667z"></path>
<path stroke-linejoin="round" stroke-linecap="round" stroke-miterlimit="4" stroke-width="3.2" d="M16 20c2.209 0 4-1.791 4-4s-1.791-4-4-4v0c-2.209 0-4 1.791-4 4s1.791 4 4 4v0z"></path>
</symbol>
<symbol id="icon-eye-off" viewBox="0 0 32 32">
<path stroke-linejoin="round" stroke-linecap="round" stroke-miterlimit="4" stroke-width="3.2" d="M23.92 23.92c-2.175 1.672-4.923 2.696-7.908 2.747l-0.012 0c-9.333 0-14.667-10.667-14.667-10.667 1.713-3.152 3.978-5.791 6.689-7.877l0.058-0.043M13.2 5.653c0.833-0.203 1.788-0.32 2.771-0.32 0.010 0 0.020 0 0.030 0h-0.002c9.333 0 14.667 10.667 14.667 10.667-0.872 1.615-1.827 3.008-2.91 4.289l0.030-0.036M18.827 18.827c-0.731 0.774-1.764 1.256-2.91 1.256-2.209 0-4-1.791-4-4 0-1.146 0.482-2.179 1.254-2.909l0.002-0.002M1.333 1.333l29.334 29.334"></path>
</symbol>
<symbol id="icon-logo-2" viewBox="0 0 32 32">
<path d="M15.932 14.222c7.045-5.313 7.355-8.533 0-14.222-7.496 5.81-6.53 8.89 0 14.222zM14.222 16.068c-5.313-7.045-8.533-7.355-14.222 0 5.81 7.496 8.889 6.53 14.222 0zM32 16.068c-5.313-7.045-8.533-7.355-14.222 0 5.81 7.496 8.889 6.53 14.222 0zM15.932 32c7.045-5.313 7.355-8.533 0-14.222-7.496 5.81-6.53 8.89 0 14.222z"></path>
</symbol>
<symbol id="icon-pagination-first" viewBox="0 0 32 32">
<path d="M23.454 24l1.88-1.88-6.108-6.12 6.108-6.12-1.88-1.88-8 8 8 8z"></path>
<path d="M14.666 24l1.88-1.88-6.106-6.12 6.106-6.12-1.88-1.88-8 8 8 8z"></path>
</symbol>
<symbol id="icon-pagination-prev" viewBox="0 0 32 32">
<path d="M20.12 24l1.88-1.88-6.106-6.12 6.106-6.12-1.88-1.88-8 8 8 8z"></path>
</symbol>
<symbol id="icon-plus" viewBox="0 0 32 32">
<path stroke-linejoin="round" stroke-linecap="round" stroke-miterlimit="4" stroke-width="2.4" d="M16 6.667v18.666M6.667 16h18.666"></path>
</symbol>
<symbol id="icon-search" viewBox="0 0 32 32">
<path stroke-linejoin="round" stroke-linecap="round" stroke-miterlimit="4" stroke-width="2.4" d="M14.667 25.333c0.039 0 0.085 0.001 0.131 0.001 5.891 0 10.667-4.776 10.667-10.667s-4.776-10.667-10.667-10.667c-0.046 0-0.092 0-0.138 0.001l0.007-0c-5.835 0.074-10.537 4.821-10.537 10.666s4.702 10.593 10.53 10.666l0.007 0zM28 28l-5.8-5.8"></path>
</symbol>
<symbol id="icon-ukraine" viewBox="0 0 32 32">
<path fill="#ffda44" style="fill: var(--color4, #ffda44)" d="M16 32c8.837 0 16-7.163 16-16s-7.163-16-16-16-16 7.163-16 16 7.163 16 16 16z"></path>
<path fill="#338af3" style="fill: var(--color5, #338af3)" d="M0 16c0-8.837 7.163-16 16-16s16 7.163 16 16z"></path>
</symbol>
<symbol id="icon-user" viewBox="0 0 32 32">
<path d="M16 0c4.418 0 8 3.582 8 8s-3.582 8-8 8v0c-4.418 0-8-3.582-8-8s3.582-8 8-8v0zM16 32s16 0 16-4c0-4.8-7.8-10-16-10s-16 5.2-16 10c0 4 16 4 16 4z"></path>
</symbol>
</defs>
</svg>
